<?xml version="1.0" encoding="UTF-8" standalone="no"?>
<!-- Created with Inkscape (http://www.inkscape.org/) -->

<svg
   xmlns:dc="http://purl.org/dc/elements/1.1/"
   xmlns:cc="http://creativecommons.org/ns#"
   xmlns:rdf="http://www.w3.org/1999/02/22-rdf-syntax-ns#"
   xmlns:svg="http://www.w3.org/2000/svg"
   xmlns="http://www.w3.org/2000/svg"
   xmlns:sodipodi="http://sodipodi.sourceforge.net/DTD/sodipodi-0.dtd"
   xmlns:inkscape="http://www.inkscape.org/namespaces/inkscape"
   width="16px"
   height="16px"
   id="svg3798"
   version="1.1"
   inkscape:version="0.48.2 r9819"
   sodipodi:docname="asterisk.svg">
  <defs
     id="defs3800" />
  <sodipodi:namedview
     id="base"
     pagecolor="#ffffff"
     bordercolor="#666666"
     borderopacity="1.0"
     inkscape:pageopacity="0.0"
     inkscape:pageshadow="2"
     inkscape:zoom="28.75"
     inkscape:cx="8"
     inkscape:cy="8"
     inkscape:current-layer="layer1"
     showgrid="true"
     inkscape:grid-bbox="true"
     inkscape:document-units="px"
     inkscape:window-width="1440"
     inkscape:window-height="779"
     inkscape:window-x="0"
     inkscape:window-y="0"
     inkscape:window-maximized="1">
    <inkscape:grid
       type="xygrid"
       id="grid3810" />
  </sodipodi:namedview>
  <metadata
     id="metadata3803">
    <rdf:RDF>
      <cc:Work
         rdf:about="">
        <dc:format>image/svg+xml</dc:format>
        <dc:type
           rdf:resource="http://purl.org/dc/dcmitype/StillImage" />
        <dc:title></dc:title>
      </cc:Work>
    </rdf:RDF>
  </metadata>
  <g
     id="layer1"
     inkscape:label="Layer 1"
     inkscape:groupmode="layer">
    <g
       transform="matrix(1.4808013,0,0,1.3113119,0.01491276,0.02177283)"
       style="font-size:30.10688400000000087px;font-style:normal;font-weight:normal;line-height:125%;letter-spacing:0px;word-spacing:0px;fill:#ff0000;fill-opacity:1;stroke:none;font-family:Sans"
       id="text3806">
      <path
         d="M 5.1204481,5.5402331 C 5.0812392,4.8640203 4.9440335,4.1926924 4.7088305,3.5262472 4.3756098,2.5658246 4.2090028,1.9042971 4.2090092,1.5416626 4.2090028,1.0320607 4.3266077,0.64494461 4.5618242,0.38031308 4.8068277,0.11572257 5.1057402,-0.01658294 5.4585625,-0.01660385 5.7623675,-0.01658294 6.0269786,0.11572257 6.2523963,0.38031308 6.4777973,0.64494461 6.590502,1.0222603 6.5905108,1.5122614 6.590502,1.9532991 6.4581965,2.5707248 6.1935938,3.3645404 5.9387749,4.1485905 5.7819684,4.8738207 5.7231738,5.5402331 6.2621884,5.1972342 6.7473086,4.7807169 7.1785358,4.2906799 7.8449543,3.5164642 8.3398749,3.0362442 8.6632992,2.8500184 8.9867018,2.6638287 9.3150155,2.5707248 9.6482412,2.5707065 c 0.3234017,1.83e-5 0.5929128,0.112723 0.8085348,0.3381144 0.225396,0.215627 0.338101,0.4753378 0.338114,0.7791332 -1.3e-5,0.3626323 -0.16172,0.6860458 -0.485121,0.9702414 C 9.9863435,4.9424236 9.1778098,5.2266354 7.8841659,5.5108319 7.1295245,5.6774542 6.5022984,5.8685622 6.0024857,6.0841563 c 0.5096131,0.2646259 1.131939,0.4655342 1.8669796,0.6027257 1.1858394,0.2156232 1.9600716,0.4851345 2.3226987,0.8085345 0.372404,0.3234269 0.558611,0.6762416 0.558624,1.0584452 -1.3e-5,0.2940245 -0.112717,0.5488352 -0.338114,0.7644326 C 10.197052,9.5339148 9.9422416,9.6417193 9.6482412,9.6417081 9.3542171,9.6417193 9.0259035,9.538815 8.6632992,9.3329949 8.3104737,9.1271979 7.8302537,8.6665787 7.2226377,7.951136 6.8208116,7.4709289 6.3209908,7.0201101 5.7231738,6.5986783 5.7427667,7.1573158 5.8554714,7.7649411 6.0612882,8.421556 6.4140947,9.5780167 6.590502,10.36695 6.5905108,10.788357 6.590502,11.180383 6.4728971,11.513597 6.2376957,11.788 6.0024775,12.05262 5.7525671,12.184925 5.4879637,12.184917 5.125341,12.184925 4.7970273,12.042819 4.5030217,11.758598 4.2972065,11.552799 4.1943022,11.224485 4.1943086,10.773656 4.1943022,10.303247 4.3070069,9.7397234 4.532423,9.0830842 4.7578257,8.4166683 4.8999316,7.9609493 4.9587412,7.7159259 5.0175365,7.4611285 5.0714388,7.088713 5.1204481,6.5986783 4.5422167,6.9809085 4.0374957,7.4072262 3.6062835,7.8776328 2.890848,8.6812793 2.3518255,9.1909005 1.9892145,9.406498 1.7343998,9.563316 1.4697888,9.6417193 1.1953807,9.6417081 0.86216346,9.6417193 0.57795162,9.5290146 0.34274431,9.3035936 0.10753203,9.0781958 -0.01007287,8.8282854 -0.01007074,8.5538617 -0.01007287,8.3088638 0.08793121,8.0540532 0.2839418,7.7894291 0.48974795,7.5150307 0.7935606,7.2896213 1.1953807,7.1132002 1.4599884,6.9956091 2.0627135,6.8388026 3.0035578,6.6427802 3.611178,6.5153891 4.2041026,6.3291813 4.7823337,6.0841563 4.2531047,5.8195601 3.6209784,5.6137516 2.8859528,5.46673 1.6804975,5.2119348 0.93566652,4.9816252 0.65145748,4.7758005 0.21043632,4.4524032 -0.01007287,4.0603869 -0.01007074,3.5997504 -0.01007287,3.3351567 0.09773162,3.0950467 0.31334306,2.8794197 0.53874999,2.6540283 0.79846081,2.5413236 1.0924763,2.5413052 1.4158865,2.5413236 1.7589008,2.6442279 2.1215202,2.8500184 2.484131,3.055845 2.9349498,3.4723624 3.4739779,4.0995717 4.0129947,4.7170142 4.5618175,5.1972342 5.1204481,5.5402331"
         style="font-variant:normal;font-stretch:normal;font-family:Times New Roman;-inkscape-font-specification:Times New Roman;fill:#ff0000"
         id="path3813"
         inkscape:connector-curvature="0" />
    </g>
  </g>
</svg>
